<?xml version="1.0" encoding="utf-8"?>
<!-- Generator: Adobe Illustrator 25.4.0, SVG Export Plug-In . SVG Version: 6.00 Build 0)  -->
<svg version="1.1" id="_x2014_ÎÓÈ_x5F_1" xmlns="http://www.w3.org/2000/svg" xmlns:xlink="http://www.w3.org/1999/xlink"
	 x="0px" y="0px" viewBox="0 0 600 450" style="enable-background:new 0 0 600 450;" xml:space="preserve">
<style type="text/css">
	.st0{fill:url(#SVGID_1_);}
	.st1{fill:url(#SVGID_00000104707616679918730800000015836036965431396773_);}
	.st2{fill:url(#SVGID_00000080919183006969805430000012515517326667581582_);}
	.st3{fill:url(#SVGID_00000154411008206707077890000001184722412350221245_);}
	.st4{opacity:0.8;fill:#0C0F38;}
	.st5{opacity:0.8;fill:#D4088C;}
	.st6{fill:#6EE8FC;}
	.st7{fill:#D4088C;}
	.st8{fill:#6EE1F8;}
	.st9{fill:url(#SVGID_00000089542855036485664630000000219431674777036735_);}
	.st10{fill:#3A9BD5;}
	.st11{fill:url(#SVGID_00000009564659369467043160000003942804183149180818_);}
	.st12{fill:url(#SVGID_00000179639317384741513860000017099458682928893081_);}
	.st13{fill:url(#SVGID_00000078761690598385632230000007611177532074821777_);}
	.st14{fill:url(#SVGID_00000029045332401031309450000009762076470717303455_);}
	.st15{fill:url(#SVGID_00000132787369408271689640000002558860374051090605_);}
	.st16{opacity:0.11;}
	.st17{clip-path:url(#SVGID_00000034769975126517010770000008667895797929992333_);}
	.st18{fill:url(#SVGID_00000102515558072187428020000006729927213114971532_);}
	.st19{fill:url(#SVGID_00000099621809436322307300000009157530279486518944_);}
	.st20{fill:url(#SVGID_00000127004253782044184580000018201336178543043988_);}
	.st21{fill:url(#SVGID_00000129890751711624708880000001487090296753651084_);}
	.st22{fill:url(#SVGID_00000051363225467625300300000017801494536785216427_);}
	.st23{fill:url(#SVGID_00000075868063020563972390000012496891244139465884_);}
	.st24{opacity:0.5;}
	.st25{fill:#FFFFFF;}
</style>
<radialGradient id="SVGID_1_" cx="214.0476" cy="1725.9846" r="376.2386" gradientTransform="matrix(1.1472 0 0 1.1144 52.1502 -1699.1658)" gradientUnits="userSpaceOnUse">
	<stop  offset="0" style="stop-color:#22215B"/>
	<stop  offset="0.3261" style="stop-color:#1E1E55"/>
	<stop  offset="0.7509" style="stop-color:#141645"/>
	<stop  offset="1" style="stop-color:#0C0F38"/>
</radialGradient>
<rect x="0" class="st0" width="600" height="450"/>
<g>
	
		<linearGradient id="SVGID_00000182520123954696101880000013882561047330123918_" gradientUnits="userSpaceOnUse" x1="340.5188" y1="1011.3773" x2="387.5409" y2="1011.3773" gradientTransform="matrix(-0.7071 0.7071 -0.7071 -0.7071 1119.8167 734.1299)">
		<stop  offset="0" style="stop-color:#D4088C"/>
		<stop  offset="4.496314e-02" style="stop-color:#CC088C"/>
		<stop  offset="0.4621" style="stop-color:#85078A"/>
		<stop  offset="0.7624" style="stop-color:#590689"/>
		<stop  offset="0.914" style="stop-color:#480689"/>
	</linearGradient>
	<circle style="fill:url(#SVGID_00000182520123954696101880000013882561047330123918_);" cx="147.3" cy="276.4" r="23.5"/>
	
		<linearGradient id="SVGID_00000031194714084420825520000007986386523979112833_" gradientUnits="userSpaceOnUse" x1="220.7185" y1="1115.0159" x2="240.1911" y2="1115.0159" gradientTransform="matrix(-1 0 0 -1 408.1528 1225.2839)">
		<stop  offset="0" style="stop-color:#6EE8FC"/>
		<stop  offset="0.1572" style="stop-color:#6AE2FB"/>
		<stop  offset="0.3681" style="stop-color:#5ED1F7"/>
		<stop  offset="0.6094" style="stop-color:#4BB5F1"/>
		<stop  offset="0.8716" style="stop-color:#308EE8"/>
		<stop  offset="0.9624" style="stop-color:#267FE5"/>
	</linearGradient>
	<circle style="fill:url(#SVGID_00000031194714084420825520000007986386523979112833_);" cx="177.7" cy="110.3" r="9.7"/>
	
		<linearGradient id="SVGID_00000174580207531642045590000016737325644730900401_" gradientUnits="userSpaceOnUse" x1="82.7736" y1="798.7752" x2="126.551" y2="798.7752" gradientTransform="matrix(0.8955 0.445 -0.445 0.8955 720.2325 -555.8404)">
		<stop  offset="0" style="stop-color:#6EE8FC"/>
		<stop  offset="0.1572" style="stop-color:#6AE2FB"/>
		<stop  offset="0.3681" style="stop-color:#5ED1F7"/>
		<stop  offset="0.6094" style="stop-color:#4BB5F1"/>
		<stop  offset="0.8716" style="stop-color:#308EE8"/>
		<stop  offset="0.9624" style="stop-color:#267FE5"/>
	</linearGradient>
	<circle style="fill:url(#SVGID_00000174580207531642045590000016737325644730900401_);" cx="456.6" cy="205.1" r="17.5"/>
	<path class="st4" d="M461.1,276c-7,1.4-14.7-0.8-17-4.9c-2.4-4.1,1.4-8.5,8.5-9.8c7-1.4,14.7,0.8,17,4.9
		C471.9,270.2,468.1,274.6,461.1,276z"/>
	<ellipse class="st4" cx="147.5" cy="345" rx="18.7" ry="10.8"/>
	<path class="st4" d="M179.8,149.6c-3.5,0.7-7.3-0.4-8.5-2.4c-1.2-2,0.7-4.2,4.2-4.9c3.5-0.7,7.3,0.4,8.5,2.4
		C185.2,146.7,183.4,148.9,179.8,149.6z"/>
	<g>
		<circle class="st5" cx="242" cy="69.8" r="2.5"/>
		<circle class="st5" cx="198.3" cy="323.4" r="3"/>
		<path class="st6" d="M180.8,310.1c0,0.9-0.7,1.5-1.5,1.5c-0.9,0-1.5-0.7-1.5-1.5s0.7-1.5,1.5-1.5
			C180.1,308.5,180.8,309.2,180.8,310.1z"/>
		<path class="st6" d="M443.4,253c0,0.9-0.7,1.6-1.6,1.6c-0.9,0-1.6-0.7-1.6-1.6c0-0.9,0.7-1.6,1.6-1.6
			C442.7,251.4,443.4,252.1,443.4,253z"/>
		<g>
			<circle class="st6" cx="145.3" cy="145.1" r="2.3"/>
			<path class="st6" d="M315.8,63c0,1.2-1,2.3-2.3,2.3c-1.2,0-2.3-1-2.3-2.3c0-1.2,1-2.3,2.3-2.3C314.7,60.7,315.8,61.7,315.8,63z"
				/>
			<path class="st6" d="M156.7,140.1c0,0.7-0.6,1.2-1.2,1.2c-0.7,0-1.2-0.6-1.2-1.2c0-0.7,0.6-1.2,1.2-1.2
				C156.1,138.8,156.7,139.4,156.7,140.1z"/>
		</g>
		<path class="st7" d="M371.2,71c0,0.8-0.7,1.5-1.5,1.5c-0.8,0-1.5-0.7-1.5-1.5c0-0.8,0.7-1.5,1.5-1.5
			C370.6,69.6,371.2,70.2,371.2,71z"/>
	</g>
	<g>
		<g>
			<polygon class="st8" points="155,218.9 154.5,216.9 158.7,215.7 157.5,211.4 159.5,210.9 161.2,217.1 			"/>
		</g>
		<g>
			<polygon class="st8" points="151.2,225.6 150.7,223.6 155,222.4 153.8,218.2 155.7,217.6 157.4,223.8 			"/>
		</g>
		<g>
			<polygon class="st8" points="155.2,223.4 153.5,217.2 159.7,215.5 160.2,217.4 156,218.6 157.2,222.9 			"/>
		</g>
	</g>
	<path class="st8" d="M302.9,75.8c-2.6,0-4.8-2.1-4.8-4.8s2.1-4.8,4.8-4.8s4.8,2.1,4.8,4.8S305.5,75.8,302.9,75.8z M302.9,68.3
		c-1.5,0-2.8,1.2-2.8,2.8c0,1.5,1.2,2.8,2.8,2.8c1.5,0,2.8-1.2,2.8-2.8C305.7,69.5,304.4,68.3,302.9,68.3z"/>
	<path class="st8" d="M407.3,313.9l-5.4-5.4l5.4-5.4l5.4,5.4L407.3,313.9z M404.8,308.5l2.6,2.6l2.6-2.6l-2.6-2.6L404.8,308.5z"/>
	<g>
		<rect x="421.4" y="116.3" transform="matrix(0.707 -0.7072 0.7072 0.707 38.6098 333.9572)" class="st7" width="2" height="8.2"/>
		
			<rect x="418.3" y="119.4" transform="matrix(0.7071 -0.7071 0.7071 0.7071 38.5928 333.9266)" class="st7" width="8.2" height="2"/>
	</g>
</g>
<path class="st7" d="M127.4,186.7c0,0.8-0.7,1.5-1.5,1.5c-0.8,0-1.5-0.7-1.5-1.5s0.7-1.5,1.5-1.5
	C126.7,185.2,127.4,185.8,127.4,186.7z"/>
<g>
	<path class="st4" d="M191.2,265.7l117.4,67.8c1.3,0.7,3.2,0.8,4.3,0.2l70-40.4c1.1-0.6,1-1.8-0.3-2.5L265.3,223
		c-1.3-0.7-3.2-0.8-4.3-0.2l-70,40.4C189.8,263.9,189.9,265,191.2,265.7z"/>
	<g>
		<g>
			<g>
				<g>
					<g>
						
							<linearGradient id="SVGID_00000121993968052967580790000015129864594845167523_" gradientUnits="userSpaceOnUse" x1="-5203.3965" y1="189.3575" x2="-5066.418" y2="189.3575" gradientTransform="matrix(-1 0 0 1 -4801.3818 0)">
							<stop  offset="0" style="stop-color:#7BDAFF"/>
							<stop  offset="1" style="stop-color:#59BDEF"/>
						</linearGradient>
						<path style="fill:url(#SVGID_00000121993968052967580790000015129864594845167523_);" d="M265.1,197.9l14.8-88l-1.2-0.5l1.8-1
							l0,0c0.3-0.2,0.8-0.2,1.4,0.1l118.6,68.5c1,0.6,1.7,2,1.5,3l-15,88.7c-0.1,0.5-0.3,0.8-0.6,0.9l0,0l-1.8,1l-0.3-1.6l0.1,0
							l-117.9-68C265.6,200.3,264.9,198.9,265.1,197.9z"/>
						<path class="st10" d="M399.8,179.3l1.9-0.9c0.2,0.5,0.3,1,0.3,1.5l-15,88.7c-0.1,0.5-0.3,0.8-0.6,0.9l0,0l-1.8,1l-0.3-1.6
							l0.1,0l-6-3.4L399.8,179.3z"/>
						
							<linearGradient id="SVGID_00000078013944917951954620000005739452158780321176_" gradientUnits="userSpaceOnUse" x1="-5201.5361" y1="189.9553" x2="-5064.5576" y2="189.9553" gradientTransform="matrix(-1 0 0 1 -4801.3818 0)">
							<stop  offset="0" style="stop-color:#2573BA"/>
							<stop  offset="1" style="stop-color:#0063AD"/>
						</linearGradient>
						<path style="fill:url(#SVGID_00000078013944917951954620000005739452158780321176_);" d="M264.7,202l118.6,68.5
							c0.9,0.5,1.7,0.2,1.9-0.7l15-88.7c0.2-1-0.6-2.4-1.5-3L280,109.5c-0.9-0.5-1.7-0.2-1.9,0.7l-15,88.7
							C263,200,263.8,201.4,264.7,202z"/>
						
							<linearGradient id="SVGID_00000038393800871939572730000015101103144178055064_" gradientUnits="userSpaceOnUse" x1="-5201.5361" y1="189.9553" x2="-5064.5576" y2="189.9553" gradientTransform="matrix(-1 0 0 1 -4801.3818 0)">
							<stop  offset="0" style="stop-color:#2C75E4"/>
							<stop  offset="4.482402e-02" style="stop-color:#3461D5"/>
							<stop  offset="0.1323" style="stop-color:#4140BB"/>
							<stop  offset="0.2225" style="stop-color:#4B27A7"/>
							<stop  offset="0.3154" style="stop-color:#521499"/>
							<stop  offset="0.4127" style="stop-color:#570A91"/>
							<stop  offset="0.5215" style="stop-color:#58068E"/>
							<stop  offset="0.6592" style="stop-color:#5B078F"/>
							<stop  offset="0.7607" style="stop-color:#640A92"/>
							<stop  offset="0.8506" style="stop-color:#740F98"/>
							<stop  offset="0.9332" style="stop-color:#8B17A0"/>
							<stop  offset="1" style="stop-color:#A31FA9"/>
						</linearGradient>
						<path style="fill:url(#SVGID_00000038393800871939572730000015101103144178055064_);" d="M264.7,202l118.6,68.5
							c0.9,0.5,1.7,0.2,1.9-0.7l15-88.7c0.2-1-0.6-2.4-1.5-3L280,109.5c-0.9-0.5-1.7-0.2-1.9,0.7l-15,88.7
							C263,200,263.8,201.4,264.7,202z"/>
						
							<linearGradient id="SVGID_00000023969462313575849550000015711115724152763306_" gradientUnits="userSpaceOnUse" x1="-5198.7222" y1="189.972" x2="-5067.5054" y2="189.972" gradientTransform="matrix(-1 0 0 1 -4801.3818 0)">
							<stop  offset="0" style="stop-color:#7BDAFF"/>
							<stop  offset="1" style="stop-color:#59BDEF"/>
						</linearGradient>
						<polygon style="fill:url(#SVGID_00000023969462313575849550000015711115724152763306_);" points="280.2,114.4 397.3,182 
							383.2,265.6 266.1,198 						"/>
					</g>
					<g>
						
							<linearGradient id="SVGID_00000145060777064557911450000000378306060982545031_" gradientUnits="userSpaceOnUse" x1="-5185.0444" y1="263.975" x2="-4991.5859" y2="263.975" gradientTransform="matrix(-1 0 0 1 -4801.3818 0)">
							<stop  offset="0" style="stop-color:#2C75E4"/>
							<stop  offset="4.482402e-02" style="stop-color:#3461D5"/>
							<stop  offset="0.1323" style="stop-color:#4140BB"/>
							<stop  offset="0.2225" style="stop-color:#4B27A7"/>
							<stop  offset="0.3154" style="stop-color:#521499"/>
							<stop  offset="0.4127" style="stop-color:#570A91"/>
							<stop  offset="0.5215" style="stop-color:#58068E"/>
							<stop  offset="0.6592" style="stop-color:#5B078F"/>
							<stop  offset="0.7607" style="stop-color:#640A92"/>
							<stop  offset="0.8506" style="stop-color:#740F98"/>
							<stop  offset="0.9332" style="stop-color:#8B17A0"/>
							<stop  offset="1" style="stop-color:#A31FA9"/>
						</linearGradient>
						<path style="fill:url(#SVGID_00000145060777064557911450000000378306060982545031_);" d="M190.2,244l6.5,3.4l64.9-37.5
							c1.1-0.6,3-0.5,4.2,0.2l111.9,64.6c1.1-0.6,6-2.9,6-2.9l-2.4,6.2c0,0,0,0,0,0c-0.1,0.3-0.3,0.5-0.7,0.7l-68.3,39.5
							c-1.1,0.6-3,0.5-4.2-0.2l-114.5-66.1c-0.5-0.3-0.8-0.7-1-1l0,0L190.2,244z"/>
						
							<radialGradient id="SVGID_00000122706706209179672500000002648663825193068201_" cx="-5190.9712" cy="273.191" r="205.3948" gradientTransform="matrix(-1 0 0 1 -4801.3818 0)" gradientUnits="userSpaceOnUse">
							<stop  offset="0" style="stop-color:#2979E4"/>
							<stop  offset="0.2449" style="stop-color:#4958CD"/>
							<stop  offset="0.5716" style="stop-color:#6E33B2"/>
							<stop  offset="0.8349" style="stop-color:#851BA1"/>
							<stop  offset="1" style="stop-color:#8D139B"/>
						</radialGradient>
						<path style="fill:url(#SVGID_00000122706706209179672500000002648663825193068201_);" d="M191.2,245l117.4,67.8
							c1.3,0.7,3.2,0.8,4.3,0.2l70-40.4c1.1-0.6,1-1.8-0.3-2.5l-117.4-67.8c-1.3-0.7-3.2-0.8-4.3-0.2l-70,40.4
							C189.8,243.2,189.9,244.3,191.2,245z"/>
						<path class="st6" d="M191.2,243.9l117.4,67.8c1.3,0.7,3.2,0.8,4.3,0.2l70-40.4c0.3-0.2,0.5-0.3,0.6-0.5
							c0.3,0.6,0.2,1.2-0.6,1.7l-70,40.4c-1.1,0.6-3.1,0.6-4.3-0.2L191.2,245c-1-0.6-1.3-1.4-0.9-2
							C190.5,243.3,190.8,243.6,191.2,243.9z"/>
					</g>
				</g>
				<g class="st16">
					<defs>
						<polygon id="SVGID_00000111157323207882819480000010753181615439789464_" class="st16" points="281.6,115.2 397.3,182 
							383.2,265.6 267.5,198.8 						"/>
					</defs>
					<clipPath id="SVGID_00000004544411889313965070000003357616597114689959_">
						<use xlink:href="#SVGID_00000111157323207882819480000010753181615439789464_"  style="overflow:visible;"/>
					</clipPath>
					<g style="clip-path:url(#SVGID_00000004544411889313965070000003357616597114689959_);">
						
							<linearGradient id="SVGID_00000022561245115000793770000008283773127697025960_" gradientUnits="userSpaceOnUse" x1="-5208.7134" y1="216.1095" x2="-4993.2261" y2="216.1095" gradientTransform="matrix(-1 0 0 1 -4801.3818 0)">
							<stop  offset="0" style="stop-color:#C0BFF6"/>
							<stop  offset="0.2938" style="stop-color:#C5C4F7"/>
							<stop  offset="0.6399" style="stop-color:#D3D2F9"/>
							<stop  offset="1" style="stop-color:#E9E9FD"/>
						</linearGradient>
						<path style="fill:url(#SVGID_00000022561245115000793770000008283773127697025960_);" d="M265.4,202.2l130.7,75.4
							c1.4,0.8,3.6,0.9,4.8,0.2l78-45c1.2-0.7,1.1-2-0.3-2.8l-130.7-75.4c-1.4-0.8-3.6-0.9-4.8-0.2l-78,45
							C263.9,200.1,264,201.4,265.4,202.2z"/>
						<g>
							<g>
								
									<radialGradient id="SVGID_00000176750008191879429050000007239790155548885643_" cx="339.4817" cy="228.6797" r="40.1474" gradientUnits="userSpaceOnUse">
									<stop  offset="0" style="stop-color:#22215B"/>
									<stop  offset="0.3261" style="stop-color:#1E1E55"/>
									<stop  offset="0.7509" style="stop-color:#141645"/>
									<stop  offset="1" style="stop-color:#0C0F38"/>
								</radialGradient>
								<polygon style="fill:url(#SVGID_00000176750008191879429050000007239790155548885643_);" points="294.1,200.3 388.7,254.9 
									384.9,257.1 290.3,202.5 								"/>
								
									<radialGradient id="SVGID_00000127017794086810077310000000338593412957675696_" cx="347.1066" cy="221.5732" r="38.2352" gradientUnits="userSpaceOnUse">
									<stop  offset="0" style="stop-color:#22215B"/>
									<stop  offset="0.3261" style="stop-color:#1E1E55"/>
									<stop  offset="0.7509" style="stop-color:#141645"/>
									<stop  offset="1" style="stop-color:#0C0F38"/>
								</radialGradient>
								<polygon style="fill:url(#SVGID_00000127017794086810077310000000338593412957675696_);" points="304,194.5 393.9,246.4 
									390.2,248.6 300.3,196.7 								"/>
								<g>
									<polygon class="st8" points="400.6,250.3 409,255.2 405.3,257.3 396.9,252.5 									"/>
								</g>
								<g>
									<polygon class="st8" points="393.2,257.5 399.1,260.9 395.3,263.1 389.5,259.7 									"/>
								</g>
								
									<radialGradient id="SVGID_00000048500298057206194100000004750036141544579488_" cx="360.9071" cy="222.3297" r="44.4042" gradientUnits="userSpaceOnUse">
									<stop  offset="0" style="stop-color:#22215B"/>
									<stop  offset="0.3261" style="stop-color:#1E1E55"/>
									<stop  offset="0.7509" style="stop-color:#141645"/>
									<stop  offset="1" style="stop-color:#0C0F38"/>
								</radialGradient>
								<polygon style="fill:url(#SVGID_00000048500298057206194100000004750036141544579488_);" points="310.3,190.9 415.3,251.6 
									411.5,253.7 306.5,193.1 								"/>
								
									<radialGradient id="SVGID_00000147204544069860503240000008368406133758501783_" cx="367.1522" cy="218.7241" r="44.4042" gradientUnits="userSpaceOnUse">
									<stop  offset="0" style="stop-color:#22215B"/>
									<stop  offset="0.3261" style="stop-color:#1E1E55"/>
									<stop  offset="0.7509" style="stop-color:#141645"/>
									<stop  offset="1" style="stop-color:#0C0F38"/>
								</radialGradient>
								<polygon style="fill:url(#SVGID_00000147204544069860503240000008368406133758501783_);" points="316.5,187.3 421.5,248 
									417.8,250.1 312.8,189.5 								"/>
								
									<radialGradient id="SVGID_00000008836609911754623220000006193189801910656667_" cx="373.3973" cy="215.1185" r="44.4042" gradientUnits="userSpaceOnUse">
									<stop  offset="0" style="stop-color:#22215B"/>
									<stop  offset="0.3261" style="stop-color:#1E1E55"/>
									<stop  offset="0.7509" style="stop-color:#141645"/>
									<stop  offset="1" style="stop-color:#0C0F38"/>
								</radialGradient>
								<polygon style="fill:url(#SVGID_00000008836609911754623220000006193189801910656667_);" points="322.8,183.7 427.8,244.4 
									424,246.5 319,185.9 								"/>
							</g>
						</g>
					</g>
				</g>
			</g>
		</g>
		<g>
			<g>
				<polygon class="st8" points="262.4,217.5 347.2,266.4 350.9,264.3 266.2,215.3 				"/>
			</g>
			<g>
				<polygon class="st8" points="253.2,222.9 332.7,268.7 336.4,266.6 257,220.7 				"/>
			</g>
			<g>
				<polygon class="st8" points="247.2,226.3 340.7,280.3 344.5,278.2 251,224.2 				"/>
			</g>
			<g>
				<polygon class="st8" points="241.2,229.8 334.7,283.8 338.5,281.6 244.9,227.6 				"/>
			</g>
			<g>
				<polygon class="st8" points="235.2,233.3 328.7,287.3 332.5,285.1 238.9,231.1 				"/>
			</g>
			<g>
				<polygon class="st8" points="352.3,269.4 356,271.6 359.8,269.4 356,267.2 				"/>
			</g>
			<g>
				<polygon class="st8" points="339,272.4 346.8,276.9 350.6,274.7 342.8,270.2 				"/>
			</g>
		</g>
	</g>
	<g class="st24">
		<polygon class="st25" points="289.9,139.3 297.6,143.8 297.9,142.5 290.1,138 		"/>
		<polygon class="st25" points="298.9,144.5 303.1,147 303.3,145.6 299.1,143.2 		"/>
		<polygon class="st25" points="309.7,150.8 312.7,152.5 312.9,151.2 309.9,149.4 		"/>
		<polygon class="st25" points="307.4,149.5 308.5,150.1 308.7,148.7 307.7,148.1 		"/>
		<polygon class="st25" points="304.4,147.7 306.3,148.8 306.5,147.4 304.6,146.4 		"/>
		<polygon class="st25" points="296,149.6 299.1,151.4 299.3,150 296.3,148.3 		"/>
		<polygon class="st25" points="288.9,145.5 294.8,148.9 295.1,147.6 289.1,144.1 		"/>
		<g>
			<polygon class="st25" points="297.4,167.3 303.4,170.7 303.6,169.4 297.7,165.9 			"/>
			<polygon class="st25" points="294.4,165.5 296.3,166.6 296.5,165.2 294.6,164.2 			"/>
		</g>
		<polygon class="st25" points="298.4,161.1 304.4,164.6 304.6,163.2 298.7,159.8 		"/>
		<polygon class="st25" points="295.4,159.3 297.3,160.4 297.5,159.1 295.6,158 		"/>
		<polygon class="st25" points="293,193.8 281.8,187.3 281.5,188.7 292.8,195.2 		"/>
		<polygon class="st25" points="297,196.1 294.2,194.5 294,195.8 296.8,197.5 		"/>
		<polygon class="st25" points="316.8,197.4 305.5,190.9 305.3,192.2 316.6,198.8 		"/>
		<polygon class="st25" points="320.8,199.7 318,198.1 317.8,199.4 320.5,201.1 		"/>
		<polygon class="st25" points="285.3,186 282.3,184.2 282.1,185.6 285.1,187.3 		"/>
		<polygon class="st25" points="303.9,190 300.9,188.2 300.6,189.6 303.7,191.3 		"/>
		<polygon class="st25" points="292.5,190.1 286.5,186.7 286.3,188 292.3,191.5 		"/>
		<polygon class="st25" points="295.6,191.9 293.7,190.8 293.5,192.2 295.3,193.3 		"/>
		<polygon class="st25" points="302.8,196.1 296.8,192.6 296.6,194 302.6,197.4 		"/>
		<polygon class="st25" points="305.9,197.9 304,196.8 303.7,198.1 305.6,199.2 		"/>
		<polygon class="st25" points="303.4,193.1 300.3,191.3 300.1,192.6 303.2,194.4 		"/>
		<polygon class="st25" points="310.5,197.2 304.6,193.7 304.3,195.1 310.3,198.5 		"/>
		<polygon class="st25" points="313.6,199 311.7,197.9 311.5,199.2 313.4,200.3 		"/>
		<polygon class="st25" points="289,184.8 282.8,181.2 282.6,182.5 288.8,186.1 		"/>
		<polygon class="st25" points="294.7,188.1 290.2,185.5 290,186.8 294.5,189.4 		"/>
		<polygon class="st25" points="299,190.5 295.9,188.8 295.7,190.1 298.8,191.9 		"/>
		<polygon class="st25" points="328.6,204.2 322.3,200.6 322.1,201.9 328.4,205.6 		"/>
		<polygon class="st25" points="334.3,207.5 329.8,204.9 329.5,206.2 334.1,208.8 		"/>
		<polygon class="st25" points="338.5,209.9 335.5,208.2 335.2,209.5 338.3,211.3 		"/>
		<polygon class="st25" points="326.1,163.6 332.4,167.2 332.6,165.9 326.4,162.3 		"/>
		<polygon class="st25" points="320.4,160.3 325,163 325.2,161.6 320.7,159 		"/>
		<polygon class="st25" points="316.2,157.9 319.3,159.7 319.5,158.3 316.4,156.6 		"/>
		<polygon class="st25" points="324.1,159.1 330.3,162.7 330.5,161.3 324.3,157.7 		"/>
		<polygon class="st25" points="318.4,155.8 322.9,158.4 323.1,157 318.6,154.4 		"/>
		<polygon class="st25" points="314.1,153.3 317.2,155.1 317.4,153.7 314.4,152 		"/>
		<polygon class="st25" points="298.8,164.7 301,166 301.2,164.6 299.1,163.4 		"/>
		<polygon class="st25" points="294.9,162.4 297.7,164.1 297.9,162.7 295.1,161.1 		"/>
		<polygon class="st25" points="289.6,181.7 283.4,178.1 283.1,179.5 289.4,183.1 		"/>
		<polygon class="st25" points="295.3,185 290.8,182.4 290.6,183.8 295.1,186.4 		"/>
		<polygon class="st25" points="299.5,187.5 296.5,185.7 296.3,187 299.3,188.8 		"/>
		<polygon class="st25" points="286,176.3 283.9,175 283.6,176.4 285.8,177.6 		"/>
		<polygon class="st25" points="290,178.6 287.2,176.9 286.9,178.3 289.7,179.9 		"/>
		<polygon class="st25" points="295.6,181.8 291.1,179.2 290.9,180.6 295.4,183.2 		"/>
		<polygon class="st25" points="301.7,156.3 303.8,157.5 304.1,156.1 301.9,154.9 		"/>
		<polygon class="st25" points="297.7,154 300.5,155.6 300.8,154.2 298,152.6 		"/>
		<polygon class="st25" points="292.1,150.7 296.6,153.3 296.8,151.9 292.3,149.4 		"/>
		<polygon class="st25" points="304.9,161.3 309.4,163.8 309.6,162.5 305.2,159.9 		"/>
		<polygon class="st25" points="297.6,157.3 303.6,160.7 303.9,159.4 297.8,155.9 		"/>
		<polygon class="st25" points="294.5,155.5 296.4,156.6 296.6,155.2 294.7,154.1 		"/>
		<polygon class="st25" points="291.6,153.8 293.4,154.9 293.7,153.5 291.8,152.4 		"/>
		<g>
			<polygon class="st25" points="292,171.1 297.9,174.6 298.2,173.2 292.2,169.8 			"/>
			<polygon class="st25" points="288.9,169.3 290.8,170.4 291,169.1 289.1,168 			"/>
			<polygon class="st25" points="292.4,174.7 294.5,175.9 294.7,174.6 292.6,173.4 			"/>
			<polygon class="st25" points="299.8,172.3 301.9,173.5 302.2,172.1 300,170.9 			"/>
			<polygon class="st25" points="302.8,174 307.9,176.9 308.1,175.6 303.1,172.7 			"/>
			<polygon class="st25" points="308.8,177.4 311.8,179.2 312,177.8 309,176.1 			"/>
			<polygon class="st25" points="288.4,172.4 291.2,174 291.4,172.7 288.6,171.1 			"/>
			<g>
				<polygon class="st25" points="288.1,175.6 290.3,176.8 290.5,175.5 288.4,174.2 				"/>
				<polygon class="st25" points="284.2,173.3 287,174.9 287.2,173.6 284.4,172 				"/>
			</g>
			<polygon class="st25" points="296.8,170.5 298.7,171.6 298.9,170.3 297,169.2 			"/>
			<polygon class="st25" points="293.8,168.8 295.7,169.9 295.9,168.5 294,167.5 			"/>
		</g>
		<polygon class="st25" points="308.4,153.4 314.8,157.1 315,155.7 308.6,152 		"/>
		<polygon class="st25" points="301.1,149.2 307.2,152.7 307.4,151.3 301.3,147.8 		"/>
		<polygon class="st25" points="298,147.4 299.9,148.5 300.2,147.2 298.3,146.1 		"/>
		<polygon class="st25" points="295.1,145.7 297,146.8 297.2,145.4 295.3,144.4 		"/>
		<polygon class="st25" points="293.5,144.8 289.4,142.4 289.6,141.1 293.7,143.4 		"/>
	</g>
</g>
</svg>
