<?xml version="1.0" encoding="utf-8"?>
<!-- Generator: Adobe Illustrator 25.4.0, SVG Export Plug-In . SVG Version: 6.00 Build 0)  -->
<svg version="1.1" id="_x2014_ÎÓÈ_x5F_1" xmlns="http://www.w3.org/2000/svg" xmlns:xlink="http://www.w3.org/1999/xlink"
	 x="0px" y="0px" viewBox="0 0 600 330.9" style="enable-background:new 0 0 600 330.9;" xml:space="preserve">
<style type="text/css">
	.st0{clip-path:url(#SVGID_00000132807561741149370740000012461595064331475357_);}
	.st1{fill:url(#SVGID_00000147921159428453975090000016343508304571079612_);}
	.st2{fill:url(#SVGID_00000109723040392846820960000009207159194400525481_);}
	.st3{fill:url(#SVGID_00000031179490738147708990000013864831062581502337_);}
	.st4{fill:url(#SVGID_00000085236645090589566500000011741580682604572806_);}
	.st5{opacity:0.8;fill:#0C0F38;}
	.st6{opacity:0.8;fill:#D4088C;}
	.st7{fill:#6EE8FC;}
	.st8{fill:#D4088C;}
	.st9{fill:#6EE1F8;}
	.st10{fill:url(#SVGID_00000119839458922463908040000009506144908460353706_);}
	.st11{fill:#3A9BD5;}
	.st12{fill:url(#SVGID_00000168799382572942823200000014731438161766140083_);}
	.st13{fill:url(#SVGID_00000121251366540546939900000001291965138897157279_);}
	.st14{fill:url(#SVGID_00000057864137609613373790000002009069656409007491_);}
	.st15{fill:url(#SVGID_00000061466406779439699260000007316906483149991329_);}
	.st16{fill:url(#SVGID_00000093162164211002269830000000614623798426872730_);}
	.st17{opacity:0.11;}
	.st18{clip-path:url(#SVGID_00000019675648317342388610000011653368037082845575_);}
	.st19{fill:url(#SVGID_00000173843830911430782340000010046737536707743400_);}
	.st20{fill:url(#SVGID_00000111896013137519540600000004409717295940269456_);}
	.st21{fill:url(#SVGID_00000031892242856131909530000006800262806080784545_);}
	.st22{fill:url(#SVGID_00000129182372739741038680000010058082715673206454_);}
	.st23{fill:url(#SVGID_00000002379453487561643520000004930847666320527748_);}
	.st24{fill:url(#SVGID_00000030472087689578332630000000785112679475732113_);}
	.st25{opacity:0.5;}
	.st26{fill:#FFFFFF;}
</style>
<g>
	<defs>
		<rect id="SVGID_1_" width="600" height="330.9"/>
	</defs>
	<clipPath id="SVGID_00000123401680612742169800000007169734533764969659_">
		<use xlink:href="#SVGID_1_"  style="overflow:visible;"/>
	</clipPath>
	<g style="clip-path:url(#SVGID_00000123401680612742169800000007169734533764969659_);">
		
			<radialGradient id="SVGID_00000057868914826031844570000015035188341061845408_" cx="214.0476" cy="1680.1655" r="376.2386" gradientTransform="matrix(1.1472 0 0 1.1144 52.1502 -1693.9241)" gradientUnits="userSpaceOnUse">
			<stop  offset="0" style="stop-color:#22215B"/>
			<stop  offset="0.3261" style="stop-color:#1E1E55"/>
			<stop  offset="0.7509" style="stop-color:#141645"/>
			<stop  offset="1" style="stop-color:#0C0F38"/>
		</radialGradient>
		<rect y="-45.8" style="fill:url(#SVGID_00000057868914826031844570000015035188341061845408_);" width="600" height="450"/>
		<g>
			
				<linearGradient id="SVGID_00000072973799797315158960000011154160377872863125_" gradientUnits="userSpaceOnUse" x1="340.5188" y1="965.5581" x2="387.5409" y2="965.5581" gradientTransform="matrix(-0.7071 0.7071 -0.7071 -0.7071 1087.4178 655.9121)">
				<stop  offset="0" style="stop-color:#D4088C"/>
				<stop  offset="4.496314e-02" style="stop-color:#CC088C"/>
				<stop  offset="0.4621" style="stop-color:#85078A"/>
				<stop  offset="0.7624" style="stop-color:#590689"/>
				<stop  offset="0.914" style="stop-color:#480689"/>
			</linearGradient>
			<circle style="fill:url(#SVGID_00000072973799797315158960000011154160377872863125_);" cx="147.3" cy="230.6" r="23.5"/>
			
				<linearGradient id="SVGID_00000078766496329954494330000008114219705438156435_" gradientUnits="userSpaceOnUse" x1="220.7185" y1="1069.1968" x2="240.1911" y2="1069.1968" gradientTransform="matrix(-1 0 0 -1 408.1528 1133.6456)">
				<stop  offset="0" style="stop-color:#6EE8FC"/>
				<stop  offset="0.1572" style="stop-color:#6AE2FB"/>
				<stop  offset="0.3681" style="stop-color:#5ED1F7"/>
				<stop  offset="0.6094" style="stop-color:#4BB5F1"/>
				<stop  offset="0.8716" style="stop-color:#308EE8"/>
				<stop  offset="0.9624" style="stop-color:#267FE5"/>
			</linearGradient>
			<circle style="fill:url(#SVGID_00000078766496329954494330000008114219705438156435_);" cx="177.7" cy="64.4" r="9.7"/>
			
				<linearGradient id="SVGID_00000170249829195489543120000008258876531560773048_" gradientUnits="userSpaceOnUse" x1="82.7736" y1="752.9561" x2="126.551" y2="752.9561" gradientTransform="matrix(0.8955 0.445 -0.445 0.8955 699.843 -560.6285)">
				<stop  offset="0" style="stop-color:#6EE8FC"/>
				<stop  offset="0.1572" style="stop-color:#6AE2FB"/>
				<stop  offset="0.3681" style="stop-color:#5ED1F7"/>
				<stop  offset="0.6094" style="stop-color:#4BB5F1"/>
				<stop  offset="0.8716" style="stop-color:#308EE8"/>
				<stop  offset="0.9624" style="stop-color:#267FE5"/>
			</linearGradient>
			<circle style="fill:url(#SVGID_00000170249829195489543120000008258876531560773048_);" cx="456.6" cy="159.3" r="17.5"/>
			<path class="st5" d="M461.1,230.2c-7,1.4-14.7-0.8-17-4.9c-2.4-4.1,1.4-8.5,8.5-9.8c7-1.4,14.7,0.8,17,4.9
				C471.9,224.4,468.1,228.8,461.1,230.2z"/>
			<ellipse class="st5" cx="147.5" cy="299.2" rx="18.7" ry="10.8"/>
			<path class="st5" d="M179.8,103.8c-3.5,0.7-7.3-0.4-8.5-2.4c-1.2-2,0.7-4.2,4.2-4.9c3.5-0.7,7.3,0.4,8.5,2.4
				C185.2,100.9,183.4,103.1,179.8,103.8z"/>
			<g>
				<circle class="st6" cx="242" cy="23.9" r="2.5"/>
				<circle class="st6" cx="198.3" cy="277.6" r="3"/>
				<path class="st7" d="M180.8,264.3c0,0.9-0.7,1.5-1.5,1.5c-0.9,0-1.5-0.7-1.5-1.5s0.7-1.5,1.5-1.5
					C180.1,262.7,180.8,263.4,180.8,264.3z"/>
				<path class="st7" d="M443.4,207.2c0,0.9-0.7,1.6-1.6,1.6s-1.6-0.7-1.6-1.6c0-0.9,0.7-1.6,1.6-1.6S443.4,206.3,443.4,207.2z"/>
				<g>
					<circle class="st7" cx="145.3" cy="99.2" r="2.3"/>
					<path class="st7" d="M315.8,17.2c0,1.2-1,2.3-2.3,2.3c-1.2,0-2.3-1-2.3-2.3c0-1.2,1-2.3,2.3-2.3
						C314.7,14.9,315.8,15.9,315.8,17.2z"/>
					<path class="st7" d="M156.7,94.2c0,0.7-0.6,1.2-1.2,1.2c-0.7,0-1.2-0.6-1.2-1.2c0-0.7,0.6-1.2,1.2-1.2
						C156.1,93,156.7,93.6,156.7,94.2z"/>
				</g>
				<path class="st8" d="M371.2,25.2c0,0.8-0.7,1.5-1.5,1.5c-0.8,0-1.5-0.7-1.5-1.5c0-0.8,0.7-1.5,1.5-1.5
					C370.6,23.7,371.2,24.4,371.2,25.2z"/>
			</g>
			<g>
				<g>
					<polygon class="st9" points="155,173 154.5,171.1 158.7,169.9 157.5,165.6 159.5,165.1 161.2,171.3 					"/>
				</g>
				<g>
					<polygon class="st9" points="151.2,179.7 150.7,177.8 155,176.6 153.8,172.3 155.7,171.8 157.4,178 					"/>
				</g>
				<g>
					<polygon class="st9" points="155.2,177.6 153.5,171.4 159.7,169.6 160.2,171.6 156,172.8 157.2,177 					"/>
				</g>
			</g>
			<path class="st9" d="M302.9,30c-2.6,0-4.8-2.1-4.8-4.8s2.1-4.8,4.8-4.8s4.8,2.1,4.8,4.8S305.5,30,302.9,30z M302.9,22.4
				c-1.5,0-2.8,1.2-2.8,2.8c0,1.5,1.2,2.8,2.8,2.8c1.5,0,2.8-1.2,2.8-2.8C305.7,23.7,304.4,22.4,302.9,22.4z"/>
			<path class="st9" d="M407.3,268.1l-5.4-5.4l5.4-5.4l5.4,5.4L407.3,268.1z M404.8,262.7l2.6,2.6l2.6-2.6l-2.6-2.6L404.8,262.7z"/>
			<g>
				
					<rect x="421.4" y="70.5" transform="matrix(0.707 -0.7072 0.7072 0.707 71.0117 320.5342)" class="st8" width="2" height="8.2"/>
				
					<rect x="418.3" y="73.6" transform="matrix(0.7071 -0.7071 0.7071 0.7071 70.9921 320.5062)" class="st8" width="8.2" height="2"/>
			</g>
		</g>
		<path class="st8" d="M127.4,140.8c0,0.8-0.7,1.5-1.5,1.5c-0.8,0-1.5-0.7-1.5-1.5s0.7-1.5,1.5-1.5
			C126.7,139.4,127.4,140,127.4,140.8z"/>
		<g>
			<path class="st5" d="M191.2,219.9l117.4,67.8c1.3,0.7,3.2,0.8,4.3,0.2l70-40.4c1.1-0.6,1-1.8-0.3-2.5l-117.4-67.8
				c-1.3-0.7-3.2-0.8-4.3-0.2l-70,40.4C189.8,218,189.9,219.2,191.2,219.9z"/>
			<g>
				<g>
					<g>
						<g>
							<g>
								
									<linearGradient id="SVGID_00000104689275210829401020000011435525810668784824_" gradientUnits="userSpaceOnUse" x1="-5203.3965" y1="143.5383" x2="-5066.418" y2="143.5383" gradientTransform="matrix(-1 0 0 1 -4801.3818 0)">
									<stop  offset="0" style="stop-color:#7BDAFF"/>
									<stop  offset="1" style="stop-color:#59BDEF"/>
								</linearGradient>
								<path style="fill:url(#SVGID_00000104689275210829401020000011435525810668784824_);" d="M265.1,152.1l14.8-88l-1.2-0.5
									l1.8-1l0,0c0.3-0.2,0.8-0.2,1.4,0.1l118.6,68.5c1,0.6,1.7,2,1.5,3l-15,88.7c-0.1,0.5-0.3,0.8-0.6,0.9l0,0l-1.8,1l-0.3-1.6
									l0.1,0l-117.9-68C265.6,154.5,264.9,153.1,265.1,152.1z"/>
								<path class="st11" d="M399.8,133.5l1.9-0.9c0.2,0.5,0.3,1,0.3,1.5l-15,88.7c-0.1,0.5-0.3,0.8-0.6,0.9l0,0l-1.8,1l-0.3-1.6
									l0.1,0l-6-3.4L399.8,133.5z"/>
								
									<linearGradient id="SVGID_00000045609774781321270700000015596285913361027484_" gradientUnits="userSpaceOnUse" x1="-5201.5361" y1="144.1362" x2="-5064.5576" y2="144.1362" gradientTransform="matrix(-1 0 0 1 -4801.3818 0)">
									<stop  offset="0" style="stop-color:#2573BA"/>
									<stop  offset="1" style="stop-color:#0063AD"/>
								</linearGradient>
								<path style="fill:url(#SVGID_00000045609774781321270700000015596285913361027484_);" d="M264.7,156.1l118.6,68.5
									c0.9,0.5,1.7,0.2,1.9-0.7l15-88.7c0.2-1-0.6-2.4-1.5-3L280,63.7c-0.9-0.5-1.7-0.2-1.9,0.7l-15,88.7
									C263,154.1,263.8,155.6,264.7,156.1z"/>
								
									<linearGradient id="SVGID_00000122717746615782012120000015278623779470709407_" gradientUnits="userSpaceOnUse" x1="-5201.5361" y1="144.1362" x2="-5064.5576" y2="144.1362" gradientTransform="matrix(-1 0 0 1 -4801.3818 0)">
									<stop  offset="0" style="stop-color:#2C75E4"/>
									<stop  offset="4.482402e-02" style="stop-color:#3461D5"/>
									<stop  offset="0.1323" style="stop-color:#4140BB"/>
									<stop  offset="0.2225" style="stop-color:#4B27A7"/>
									<stop  offset="0.3154" style="stop-color:#521499"/>
									<stop  offset="0.4127" style="stop-color:#570A91"/>
									<stop  offset="0.5215" style="stop-color:#58068E"/>
									<stop  offset="0.6592" style="stop-color:#5B078F"/>
									<stop  offset="0.7607" style="stop-color:#640A92"/>
									<stop  offset="0.8506" style="stop-color:#740F98"/>
									<stop  offset="0.9332" style="stop-color:#8B17A0"/>
									<stop  offset="1" style="stop-color:#A31FA9"/>
								</linearGradient>
								<path style="fill:url(#SVGID_00000122717746615782012120000015278623779470709407_);" d="M264.7,156.1l118.6,68.5
									c0.9,0.5,1.7,0.2,1.9-0.7l15-88.7c0.2-1-0.6-2.4-1.5-3L280,63.7c-0.9-0.5-1.7-0.2-1.9,0.7l-15,88.7
									C263,154.1,263.8,155.6,264.7,156.1z"/>
								
									<linearGradient id="SVGID_00000020377678436224544380000015882681375048920992_" gradientUnits="userSpaceOnUse" x1="-5198.7222" y1="144.1528" x2="-5067.5054" y2="144.1528" gradientTransform="matrix(-1 0 0 1 -4801.3818 0)">
									<stop  offset="0" style="stop-color:#7BDAFF"/>
									<stop  offset="1" style="stop-color:#59BDEF"/>
								</linearGradient>
								<polygon style="fill:url(#SVGID_00000020377678436224544380000015882681375048920992_);" points="280.2,68.6 397.3,136.2 
									383.2,219.7 266.1,152.2 								"/>
							</g>
							<g>
								
									<linearGradient id="SVGID_00000168078605048588890130000010732801777809970050_" gradientUnits="userSpaceOnUse" x1="-5185.0444" y1="218.1559" x2="-4991.5859" y2="218.1559" gradientTransform="matrix(-1 0 0 1 -4801.3818 0)">
									<stop  offset="0" style="stop-color:#2C75E4"/>
									<stop  offset="4.482402e-02" style="stop-color:#3461D5"/>
									<stop  offset="0.1323" style="stop-color:#4140BB"/>
									<stop  offset="0.2225" style="stop-color:#4B27A7"/>
									<stop  offset="0.3154" style="stop-color:#521499"/>
									<stop  offset="0.4127" style="stop-color:#570A91"/>
									<stop  offset="0.5215" style="stop-color:#58068E"/>
									<stop  offset="0.6592" style="stop-color:#5B078F"/>
									<stop  offset="0.7607" style="stop-color:#640A92"/>
									<stop  offset="0.8506" style="stop-color:#740F98"/>
									<stop  offset="0.9332" style="stop-color:#8B17A0"/>
									<stop  offset="1" style="stop-color:#A31FA9"/>
								</linearGradient>
								<path style="fill:url(#SVGID_00000168078605048588890130000010732801777809970050_);" d="M190.2,198.1l6.5,3.4l64.9-37.5
									c1.1-0.6,3-0.5,4.2,0.2l111.9,64.6c1.1-0.6,6-2.9,6-2.9l-2.4,6.2c0,0,0,0,0,0c-0.1,0.3-0.3,0.5-0.7,0.7l-68.3,39.5
									c-1.1,0.6-3,0.5-4.2-0.2L193.5,206c-0.5-0.3-0.8-0.7-1-1l0,0L190.2,198.1z"/>
								
									<radialGradient id="SVGID_00000042736154474669233250000002156201448226319239_" cx="-5190.9712" cy="227.3719" r="205.3948" gradientTransform="matrix(-1 0 0 1 -4801.3818 0)" gradientUnits="userSpaceOnUse">
									<stop  offset="0" style="stop-color:#2979E4"/>
									<stop  offset="0.2449" style="stop-color:#4958CD"/>
									<stop  offset="0.5716" style="stop-color:#6E33B2"/>
									<stop  offset="0.8349" style="stop-color:#851BA1"/>
									<stop  offset="1" style="stop-color:#8D139B"/>
								</radialGradient>
								<path style="fill:url(#SVGID_00000042736154474669233250000002156201448226319239_);" d="M191.2,199.2L308.6,267
									c1.3,0.7,3.2,0.8,4.3,0.2l70-40.4c1.1-0.6,1-1.8-0.3-2.5l-117.4-67.8c-1.3-0.7-3.2-0.8-4.3-0.2l-70,40.4
									C189.8,197.3,189.9,198.5,191.2,199.2z"/>
								<path class="st7" d="M191.2,198.1l117.4,67.8c1.3,0.7,3.2,0.8,4.3,0.2l70-40.4c0.3-0.2,0.5-0.3,0.6-0.5
									c0.3,0.6,0.2,1.2-0.6,1.7l-70,40.4c-1.1,0.6-3.1,0.6-4.3-0.2l-117.4-67.8c-1-0.6-1.3-1.4-0.9-2
									C190.5,197.5,190.8,197.8,191.2,198.1z"/>
							</g>
						</g>
						<g class="st17">
							<defs>
								<polygon id="SVGID_00000111166592952806804890000008012207366606690440_" class="st17" points="281.6,69.3 397.3,136.2 
									383.2,219.7 267.5,152.9 								"/>
							</defs>
							<clipPath id="SVGID_00000172430586812350798510000016845857883046760586_">
								<use xlink:href="#SVGID_00000111166592952806804890000008012207366606690440_"  style="overflow:visible;"/>
							</clipPath>
							<g style="clip-path:url(#SVGID_00000172430586812350798510000016845857883046760586_);">
								
									<linearGradient id="SVGID_00000127763792524397182630000017093655382280706989_" gradientUnits="userSpaceOnUse" x1="-5208.7134" y1="170.2904" x2="-4993.2261" y2="170.2904" gradientTransform="matrix(-1 0 0 1 -4801.3818 0)">
									<stop  offset="0" style="stop-color:#C0BFF6"/>
									<stop  offset="0.2938" style="stop-color:#C5C4F7"/>
									<stop  offset="0.6399" style="stop-color:#D3D2F9"/>
									<stop  offset="1" style="stop-color:#E9E9FD"/>
								</linearGradient>
								<path style="fill:url(#SVGID_00000127763792524397182630000017093655382280706989_);" d="M265.4,156.4l130.7,75.4
									c1.4,0.8,3.6,0.9,4.8,0.2l78-45c1.2-0.7,1.1-2-0.3-2.8l-130.7-75.4c-1.4-0.8-3.6-0.9-4.8-0.2l-78,45
									C263.9,154.3,264,155.5,265.4,156.4z"/>
								<g>
									<g>
										
											<radialGradient id="SVGID_00000072992587879910816360000013456113651987854746_" cx="339.4817" cy="182.8606" r="40.1474" gradientUnits="userSpaceOnUse">
											<stop  offset="0" style="stop-color:#22215B"/>
											<stop  offset="0.3261" style="stop-color:#1E1E55"/>
											<stop  offset="0.7509" style="stop-color:#141645"/>
											<stop  offset="1" style="stop-color:#0C0F38"/>
										</radialGradient>
										<polygon style="fill:url(#SVGID_00000072992587879910816360000013456113651987854746_);" points="294.1,154.5 
											388.7,209.1 384.9,211.2 290.3,156.6 										"/>
										
											<radialGradient id="SVGID_00000103256464602841767850000003853412633366689184_" cx="347.1066" cy="175.754" r="38.2352" gradientUnits="userSpaceOnUse">
											<stop  offset="0" style="stop-color:#22215B"/>
											<stop  offset="0.3261" style="stop-color:#1E1E55"/>
											<stop  offset="0.7509" style="stop-color:#141645"/>
											<stop  offset="1" style="stop-color:#0C0F38"/>
										</radialGradient>
										<polygon style="fill:url(#SVGID_00000103256464602841767850000003853412633366689184_);" points="304,148.7 393.9,200.6 
											390.2,202.8 300.3,150.9 										"/>
										<g>
											<polygon class="st9" points="400.6,204.5 409,209.4 405.3,211.5 396.9,206.7 											"/>
										</g>
										<g>
											<polygon class="st9" points="393.2,211.7 399.1,215.1 395.3,217.3 389.5,213.9 											"/>
										</g>
										
											<radialGradient id="SVGID_00000128482420005328699960000013965708748943780779_" cx="360.9071" cy="176.5106" r="44.4042" gradientUnits="userSpaceOnUse">
											<stop  offset="0" style="stop-color:#22215B"/>
											<stop  offset="0.3261" style="stop-color:#1E1E55"/>
											<stop  offset="0.7509" style="stop-color:#141645"/>
											<stop  offset="1" style="stop-color:#0C0F38"/>
										</radialGradient>
										<polygon style="fill:url(#SVGID_00000128482420005328699960000013965708748943780779_);" points="310.3,145.1 
											415.3,205.7 411.5,207.9 306.5,147.3 										"/>
										
											<radialGradient id="SVGID_00000051377813956654529930000015683446479721421232_" cx="367.1522" cy="172.905" r="44.4042" gradientUnits="userSpaceOnUse">
											<stop  offset="0" style="stop-color:#22215B"/>
											<stop  offset="0.3261" style="stop-color:#1E1E55"/>
											<stop  offset="0.7509" style="stop-color:#141645"/>
											<stop  offset="1" style="stop-color:#0C0F38"/>
										</radialGradient>
										<polygon style="fill:url(#SVGID_00000051377813956654529930000015683446479721421232_);" points="316.5,141.5 
											421.5,202.1 417.8,204.3 312.8,143.7 										"/>
										
											<radialGradient id="SVGID_00000001625376336623137670000016937501575604168335_" cx="373.3973" cy="169.2994" r="44.4042" gradientUnits="userSpaceOnUse">
											<stop  offset="0" style="stop-color:#22215B"/>
											<stop  offset="0.3261" style="stop-color:#1E1E55"/>
											<stop  offset="0.7509" style="stop-color:#141645"/>
											<stop  offset="1" style="stop-color:#0C0F38"/>
										</radialGradient>
										<polygon style="fill:url(#SVGID_00000001625376336623137670000016937501575604168335_);" points="322.8,137.9 
											427.8,198.5 424,200.7 319,140.1 										"/>
									</g>
								</g>
							</g>
						</g>
					</g>
				</g>
				<g>
					<g>
						<polygon class="st9" points="262.4,171.7 347.2,220.6 350.9,218.4 266.2,169.5 						"/>
					</g>
					<g>
						<polygon class="st9" points="253.2,177 332.7,222.9 336.4,220.7 257,174.9 						"/>
					</g>
					<g>
						<polygon class="st9" points="247.2,180.5 340.7,234.5 344.5,232.4 251,178.3 						"/>
					</g>
					<g>
						<polygon class="st9" points="241.2,184 334.7,238 338.5,235.8 244.9,181.8 						"/>
					</g>
					<g>
						<polygon class="st9" points="235.2,187.5 328.7,241.5 332.5,239.3 238.9,185.3 						"/>
					</g>
					<g>
						<polygon class="st9" points="352.3,223.6 356,225.7 359.8,223.6 356,221.4 						"/>
					</g>
					<g>
						<polygon class="st9" points="339,226.6 346.8,231.1 350.6,228.9 342.8,224.4 						"/>
					</g>
				</g>
			</g>
			<g class="st25">
				<polygon class="st26" points="289.9,93.5 297.6,98 297.9,96.7 290.1,92.2 				"/>
				<polygon class="st26" points="298.9,98.7 303.1,101.2 303.3,99.8 299.1,97.4 				"/>
				<polygon class="st26" points="309.7,104.9 312.7,106.7 312.9,105.4 309.9,103.6 				"/>
				<polygon class="st26" points="307.4,103.7 308.5,104.3 308.7,102.9 307.7,102.3 				"/>
				<polygon class="st26" points="304.4,101.9 306.3,103 306.5,101.6 304.6,100.5 				"/>
				<polygon class="st26" points="296,103.8 299.1,105.6 299.3,104.2 296.3,102.5 				"/>
				<polygon class="st26" points="288.9,99.7 294.8,103.1 295.1,101.8 289.1,98.3 				"/>
				<g>
					<polygon class="st26" points="297.4,121.5 303.4,124.9 303.6,123.6 297.7,120.1 					"/>
					<polygon class="st26" points="294.4,119.7 296.3,120.8 296.5,119.4 294.6,118.3 					"/>
				</g>
				<polygon class="st26" points="298.4,115.3 304.4,118.8 304.6,117.4 298.7,114 				"/>
				<polygon class="st26" points="295.4,113.5 297.3,114.6 297.5,113.3 295.6,112.2 				"/>
				<polygon class="st26" points="293,148 281.8,141.5 281.5,142.8 292.8,149.3 				"/>
				<polygon class="st26" points="297,150.3 294.2,148.7 294,150 296.8,151.6 				"/>
				<polygon class="st26" points="316.8,151.6 305.5,145.1 305.3,146.4 316.6,152.9 				"/>
				<polygon class="st26" points="320.8,153.9 318,152.3 317.8,153.6 320.5,155.2 				"/>
				<polygon class="st26" points="285.3,140.2 282.3,138.4 282.1,139.8 285.1,141.5 				"/>
				<polygon class="st26" points="303.9,144.2 300.9,142.4 300.6,143.7 303.7,145.5 				"/>
				<polygon class="st26" points="292.5,144.3 286.5,140.9 286.3,142.2 292.3,145.7 				"/>
				<polygon class="st26" points="295.6,146.1 293.7,145 293.5,146.3 295.3,147.4 				"/>
				<polygon class="st26" points="302.8,150.3 296.8,146.8 296.6,148.2 302.6,151.6 				"/>
				<polygon class="st26" points="305.9,152 304,150.9 303.7,152.3 305.6,153.4 				"/>
				<polygon class="st26" points="303.4,147.2 300.3,145.5 300.1,146.8 303.2,148.6 				"/>
				<polygon class="st26" points="310.5,151.4 304.6,147.9 304.3,149.3 310.3,152.7 				"/>
				<polygon class="st26" points="313.6,153.2 311.7,152.1 311.5,153.4 313.4,154.5 				"/>
				<polygon class="st26" points="289,139 282.8,135.3 282.6,136.7 288.8,140.3 				"/>
				<polygon class="st26" points="294.7,142.2 290.2,139.6 290,141 294.5,143.6 				"/>
				<polygon class="st26" points="299,144.7 295.9,142.9 295.7,144.3 298.8,146 				"/>
				<polygon class="st26" points="328.6,158.4 322.3,154.8 322.1,156.1 328.4,159.7 				"/>
				<polygon class="st26" points="334.3,161.7 329.8,159.1 329.5,160.4 334.1,163 				"/>
				<polygon class="st26" points="338.5,164.1 335.5,162.4 335.2,163.7 338.3,165.5 				"/>
				<polygon class="st26" points="326.1,117.8 332.4,121.4 332.6,120.1 326.4,116.5 				"/>
				<polygon class="st26" points="320.4,114.5 325,117.1 325.2,115.8 320.7,113.2 				"/>
				<polygon class="st26" points="316.2,112.1 319.3,113.8 319.5,112.5 316.4,110.7 				"/>
				<polygon class="st26" points="324.1,113.2 330.3,116.8 330.5,115.5 324.3,111.9 				"/>
				<polygon class="st26" points="318.4,109.9 322.9,112.6 323.1,111.2 318.6,108.6 				"/>
				<polygon class="st26" points="314.1,107.5 317.2,109.3 317.4,107.9 314.4,106.2 				"/>
				<polygon class="st26" points="298.8,118.9 301,120.1 301.2,118.8 299.1,117.6 				"/>
				<polygon class="st26" points="294.9,116.6 297.7,118.2 297.9,116.9 295.1,115.3 				"/>
				<polygon class="st26" points="289.6,135.9 283.4,132.3 283.1,133.6 289.4,137.2 				"/>
				<polygon class="st26" points="295.3,139.2 290.8,136.6 290.6,137.9 295.1,140.5 				"/>
				<polygon class="st26" points="299.5,141.6 296.5,139.9 296.3,141.2 299.3,143 				"/>
				<polygon class="st26" points="286,130.4 283.9,129.2 283.6,130.6 285.8,131.8 				"/>
				<polygon class="st26" points="290,132.7 287.2,131.1 286.9,132.5 289.7,134.1 				"/>
				<polygon class="st26" points="295.6,136 291.1,133.4 290.9,134.8 295.4,137.4 				"/>
				<polygon class="st26" points="301.7,110.5 303.8,111.7 304.1,110.3 301.9,109.1 				"/>
				<polygon class="st26" points="297.7,108.2 300.5,109.8 300.8,108.4 298,106.8 				"/>
				<polygon class="st26" points="292.1,104.9 296.6,107.5 296.8,106.1 292.3,103.5 				"/>
				<polygon class="st26" points="304.9,115.4 309.4,118 309.6,116.7 305.2,114.1 				"/>
				<polygon class="st26" points="297.6,111.4 303.6,114.9 303.9,113.6 297.8,110.1 				"/>
				<polygon class="st26" points="294.5,109.7 296.4,110.7 296.6,109.4 294.7,108.3 				"/>
				<polygon class="st26" points="291.6,107.9 293.4,109 293.7,107.7 291.8,106.6 				"/>
				<g>
					<polygon class="st26" points="292,125.3 297.9,128.8 298.2,127.4 292.2,124 					"/>
					<polygon class="st26" points="288.9,123.5 290.8,124.6 291,123.3 289.1,122.2 					"/>
					<polygon class="st26" points="292.4,128.9 294.5,130.1 294.7,128.8 292.6,127.6 					"/>
					<polygon class="st26" points="299.8,126.4 301.9,127.7 302.2,126.3 300,125.1 					"/>
					<polygon class="st26" points="302.8,128.2 307.9,131.1 308.1,129.8 303.1,126.8 					"/>
					<polygon class="st26" points="308.8,131.6 311.8,133.4 312,132 309,130.3 					"/>
					<polygon class="st26" points="288.4,126.6 291.2,128.2 291.4,126.9 288.6,125.3 					"/>
					<g>
						<polygon class="st26" points="288.1,129.8 290.3,131 290.5,129.6 288.4,128.4 						"/>
						<polygon class="st26" points="284.2,127.5 287,129.1 287.2,127.7 284.4,126.1 						"/>
					</g>
					<polygon class="st26" points="296.8,124.7 298.7,125.8 298.9,124.4 297,123.3 					"/>
					<polygon class="st26" points="293.8,123 295.7,124.1 295.9,122.7 294,121.6 					"/>
				</g>
				<polygon class="st26" points="308.4,107.5 314.8,111.3 315,109.9 308.6,106.2 				"/>
				<polygon class="st26" points="301.1,103.4 307.2,106.9 307.4,105.5 301.3,102 				"/>
				<polygon class="st26" points="298,101.6 299.9,102.7 300.2,101.3 298.3,100.2 				"/>
				<polygon class="st26" points="295.1,99.9 297,101 297.2,99.6 295.3,98.5 				"/>
				<polygon class="st26" points="293.5,98.9 289.4,96.6 289.6,95.2 293.7,97.6 				"/>
			</g>
		</g>
	</g>
</g>
</svg>
