<?xml version="1.0" encoding="utf-8"?>
<!-- Generator: Adobe Illustrator 25.4.0, SVG Export Plug-In . SVG Version: 6.00 Build 0)  -->
<svg version="1.1" id="_x2014_ÎÓÈ_x5F_1" xmlns="http://www.w3.org/2000/svg" xmlns:xlink="http://www.w3.org/1999/xlink"
	 x="0px" y="0px" viewBox="0 0 600 252.2" style="enable-background:new 0 0 600 252.2;" xml:space="preserve">
<style type="text/css">
	.st0{clip-path:url(#SVGID_00000046341046568328449500000012005355318280056469_);}
	.st1{fill:url(#SVGID_00000124871605253356690000000011598370899996140957_);}
	.st2{fill:url(#SVGID_00000079453208929317804050000017196904013543288980_);}
	.st3{fill:url(#SVGID_00000021821428077463106530000015946255011510267551_);}
	.st4{fill:url(#SVGID_00000050624972327470258140000009895856650690415294_);}
	.st5{opacity:0.8;fill:#0C0F38;}
	.st6{opacity:0.8;fill:#D4088C;}
	.st7{fill:#6EE8FC;}
	.st8{fill:#D4088C;}
	.st9{fill:#6EE1F8;}
	.st10{fill:url(#SVGID_00000152250400552851574810000012165466083256156059_);}
	.st11{fill:#3A9BD5;}
	.st12{fill:url(#SVGID_00000042714610423660784250000001816244710283275196_);}
	.st13{fill:url(#SVGID_00000175298208550576156460000004524648063653230256_);}
	.st14{fill:url(#SVGID_00000145760834137404494690000017759954574494486424_);}
	.st15{fill:url(#SVGID_00000164508542236109143420000012585360317694537125_);}
	.st16{fill:url(#SVGID_00000164513310341987136700000007371050278606922924_);}
	.st17{opacity:0.11;}
	.st18{clip-path:url(#SVGID_00000165227789530890621990000010135783844813000118_);}
	.st19{fill:url(#SVGID_00000148626702896173026320000011157881240623869324_);}
	.st20{fill:url(#SVGID_00000127736051999920208940000005109207032105876152_);}
	.st21{fill:url(#SVGID_00000145055795700050643030000007688191771181349007_);}
	.st22{fill:url(#SVGID_00000005257662583788665300000018394924150082051722_);}
	.st23{fill:url(#SVGID_00000047023162483489901190000017366651902723842486_);}
	.st24{fill:url(#SVGID_00000160878114871788953960000000561151061780239771_);}
	.st25{opacity:0.5;}
	.st26{fill:#FFFFFF;}
</style>
<g>
	<defs>
		<rect id="SVGID_1_" width="600" height="252.2"/>
	</defs>
	<clipPath id="SVGID_00000081617481769646609380000005479735140106500536_">
		<use xlink:href="#SVGID_1_"  style="overflow:visible;"/>
	</clipPath>
	<g style="clip-path:url(#SVGID_00000081617481769646609380000005479735140106500536_);">
		
			<radialGradient id="SVGID_00000172410258947066878380000000836525887996334489_" cx="214.0476" cy="1636.9019" r="376.2386" gradientTransform="matrix(1.1472 0 0 1.1144 52.1502 -1690.3861)" gradientUnits="userSpaceOnUse">
			<stop  offset="0" style="stop-color:#22215B"/>
			<stop  offset="0.3261" style="stop-color:#1E1E55"/>
			<stop  offset="0.7509" style="stop-color:#141645"/>
			<stop  offset="1" style="stop-color:#0C0F38"/>
		</radialGradient>
		<rect y="-90.5" style="fill:url(#SVGID_00000172410258947066878380000000836525887996334489_);" width="600" height="450"/>
		<g>
			
				<linearGradient id="SVGID_00000030474588673931937540000002939449769902698421_" gradientUnits="userSpaceOnUse" x1="330.7973" y1="944.3527" x2="377.8194" y2="944.3527" gradientTransform="matrix(-0.7071 0.7071 -0.7071 -0.7071 1065.5494 603.1168)">
				<stop  offset="0" style="stop-color:#D4088C"/>
				<stop  offset="4.496314e-02" style="stop-color:#CC088C"/>
				<stop  offset="0.4621" style="stop-color:#85078A"/>
				<stop  offset="0.7624" style="stop-color:#590689"/>
				<stop  offset="0.914" style="stop-color:#480689"/>
			</linearGradient>
			<circle style="fill:url(#SVGID_00000030474588673931937540000002939449769902698421_);" cx="147.3" cy="185.9" r="23.5"/>
			
				<linearGradient id="SVGID_00000138544491669161686350000014330434151630707861_" gradientUnits="userSpaceOnUse" x1="220.7185" y1="1052.0179" x2="240.1911" y2="1052.0179" gradientTransform="matrix(-1 0 0 -1 408.1528 1071.7919)">
				<stop  offset="0" style="stop-color:#6EE8FC"/>
				<stop  offset="0.1572" style="stop-color:#6AE2FB"/>
				<stop  offset="0.3681" style="stop-color:#5ED1F7"/>
				<stop  offset="0.6094" style="stop-color:#4BB5F1"/>
				<stop  offset="0.8716" style="stop-color:#308EE8"/>
				<stop  offset="0.9624" style="stop-color:#267FE5"/>
			</linearGradient>
			<circle style="fill:url(#SVGID_00000138544491669161686350000014330434151630707861_);" cx="177.7" cy="19.8" r="9.7"/>
			
				<linearGradient id="SVGID_00000036941755435395247340000003375956909626197430_" gradientUnits="userSpaceOnUse" x1="76.6554" y1="709.7171" x2="120.4328" y2="709.7171" gradientTransform="matrix(0.8955 0.445 -0.445 0.8955 686.0805 -563.8604)">
				<stop  offset="0" style="stop-color:#6EE8FC"/>
				<stop  offset="0.1572" style="stop-color:#6AE2FB"/>
				<stop  offset="0.3681" style="stop-color:#5ED1F7"/>
				<stop  offset="0.6094" style="stop-color:#4BB5F1"/>
				<stop  offset="0.8716" style="stop-color:#308EE8"/>
				<stop  offset="0.9624" style="stop-color:#267FE5"/>
			</linearGradient>
			<circle style="fill:url(#SVGID_00000036941755435395247340000003375956909626197430_);" cx="456.6" cy="114.6" r="17.5"/>
			<path class="st5" d="M461.1,185.5c-7,1.4-14.7-0.8-17-4.9c-2.4-4.1,1.4-8.5,8.5-9.8c7-1.4,14.7,0.8,17,4.9
				C471.9,179.7,468.1,184.1,461.1,185.5z"/>
			<ellipse class="st5" cx="147.5" cy="254.5" rx="18.7" ry="10.8"/>
			<path class="st5" d="M179.8,59.1c-3.5,0.7-7.3-0.4-8.5-2.4c-1.2-2,0.7-4.2,4.2-4.9c3.5-0.7,7.3,0.4,8.5,2.4
				C185.2,56.2,183.4,58.4,179.8,59.1z"/>
			<g>
				<circle class="st6" cx="198.3" cy="232.9" r="3"/>
				<path class="st7" d="M180.8,219.6c0,0.9-0.7,1.5-1.5,1.5c-0.9,0-1.5-0.7-1.5-1.5c0-0.9,0.7-1.5,1.5-1.5
					C180.1,218.1,180.8,218.7,180.8,219.6z"/>
				<path class="st7" d="M443.4,162.5c0,0.9-0.7,1.6-1.6,1.6s-1.6-0.7-1.6-1.6s0.7-1.6,1.6-1.6S443.4,161.6,443.4,162.5z"/>
				<g>
					<circle class="st7" cx="145.3" cy="54.6" r="2.3"/>
					<path class="st7" d="M156.7,49.6c0,0.7-0.6,1.2-1.2,1.2c-0.7,0-1.2-0.6-1.2-1.2c0-0.7,0.6-1.2,1.2-1.2
						C156.1,48.3,156.7,48.9,156.7,49.6z"/>
				</g>
			</g>
			<g>
				<g>
					<polygon class="st9" points="155,128.4 154.5,126.4 158.7,125.2 157.5,121 159.5,120.4 161.2,126.6 					"/>
				</g>
				<g>
					<polygon class="st9" points="151.2,135.1 150.7,133.1 155,131.9 153.8,127.7 155.7,127.1 157.4,133.3 					"/>
				</g>
				<g>
					<polygon class="st9" points="155.2,132.9 153.5,126.7 159.7,125 160.2,126.9 156,128.1 157.2,132.4 					"/>
				</g>
			</g>
			<path class="st9" d="M407.3,223.5l-5.4-5.4l5.4-5.4l5.4,5.4L407.3,223.5z M404.8,218l2.6,2.6l2.6-2.6l-2.6-2.6L404.8,218z"/>
			<g>
				
					<rect x="421.4" y="25.8" transform="matrix(0.707 -0.7072 0.7072 0.707 102.6045 307.4464)" class="st8" width="2" height="8.2"/>
				
					<rect x="418.3" y="28.9" transform="matrix(0.7071 -0.7071 0.7071 0.7071 102.5824 307.4209)" class="st8" width="8.2" height="2"/>
			</g>
		</g>
		<path class="st8" d="M127.4,96.2c0,0.8-0.7,1.5-1.5,1.5c-0.8,0-1.5-0.7-1.5-1.5s0.7-1.5,1.5-1.5C126.7,94.7,127.4,95.4,127.4,96.2
			z"/>
		<g>
			<path class="st5" d="M191.2,175.2L308.6,243c1.3,0.7,3.2,0.8,4.3,0.2l70-40.4c1.1-0.6,1-1.8-0.3-2.5l-117.4-67.8
				c-1.3-0.7-3.2-0.8-4.3-0.2l-70,40.4C189.8,173.4,189.9,174.5,191.2,175.2z"/>
			<g>
				<g>
					<g>
						<g>
							<g>
								
									<linearGradient id="SVGID_00000083087322692692691130000007097147619207286177_" gradientUnits="userSpaceOnUse" x1="-5203.3965" y1="98.8634" x2="-5066.418" y2="98.8634" gradientTransform="matrix(-1 0 0 1 -4801.3818 0)">
									<stop  offset="0" style="stop-color:#7BDAFF"/>
									<stop  offset="1" style="stop-color:#59BDEF"/>
								</linearGradient>
								<path style="fill:url(#SVGID_00000083087322692692691130000007097147619207286177_);" d="M265.1,107.4l14.8-88l-1.2-0.5
									l1.8-1l0,0c0.3-0.2,0.8-0.2,1.4,0.1l118.6,68.5c1,0.6,1.7,2,1.5,3l-15,88.7c-0.1,0.5-0.3,0.8-0.6,0.9l0,0l-1.8,1l-0.3-1.6
									l0.1,0l-117.9-68C265.6,109.8,264.9,108.4,265.1,107.4z"/>
								<path class="st11" d="M399.8,88.8l1.9-0.9c0.2,0.5,0.3,1,0.3,1.5l-15,88.7c-0.1,0.5-0.3,0.8-0.6,0.9l0,0l-1.8,1l-0.3-1.6
									l0.1,0l-6-3.4L399.8,88.8z"/>
								
									<linearGradient id="SVGID_00000095340366319381578960000005478959143275470234_" gradientUnits="userSpaceOnUse" x1="-5201.5361" y1="99.4612" x2="-5064.5576" y2="99.4612" gradientTransform="matrix(-1 0 0 1 -4801.3818 0)">
									<stop  offset="0" style="stop-color:#2573BA"/>
									<stop  offset="1" style="stop-color:#0063AD"/>
								</linearGradient>
								<path style="fill:url(#SVGID_00000095340366319381578960000005478959143275470234_);" d="M264.7,111.5l118.6,68.5
									c0.9,0.5,1.7,0.2,1.9-0.7l15-88.7c0.2-1-0.6-2.4-1.5-3L280,19c-0.9-0.5-1.7-0.2-1.9,0.7l-15,88.7
									C263,109.5,263.8,110.9,264.7,111.5z"/>
								
									<linearGradient id="SVGID_00000039822628364208900090000000529951115784967847_" gradientUnits="userSpaceOnUse" x1="-5201.5361" y1="99.4612" x2="-5064.5576" y2="99.4612" gradientTransform="matrix(-1 0 0 1 -4801.3818 0)">
									<stop  offset="0" style="stop-color:#2C75E4"/>
									<stop  offset="4.482402e-02" style="stop-color:#3461D5"/>
									<stop  offset="0.1323" style="stop-color:#4140BB"/>
									<stop  offset="0.2225" style="stop-color:#4B27A7"/>
									<stop  offset="0.3154" style="stop-color:#521499"/>
									<stop  offset="0.4127" style="stop-color:#570A91"/>
									<stop  offset="0.5215" style="stop-color:#58068E"/>
									<stop  offset="0.6592" style="stop-color:#5B078F"/>
									<stop  offset="0.7607" style="stop-color:#640A92"/>
									<stop  offset="0.8506" style="stop-color:#740F98"/>
									<stop  offset="0.9332" style="stop-color:#8B17A0"/>
									<stop  offset="1" style="stop-color:#A31FA9"/>
								</linearGradient>
								<path style="fill:url(#SVGID_00000039822628364208900090000000529951115784967847_);" d="M264.7,111.5l118.6,68.5
									c0.9,0.5,1.7,0.2,1.9-0.7l15-88.7c0.2-1-0.6-2.4-1.5-3L280,19c-0.9-0.5-1.7-0.2-1.9,0.7l-15,88.7
									C263,109.5,263.8,110.9,264.7,111.5z"/>
								
									<linearGradient id="SVGID_00000014592389093174546760000015838199747592667792_" gradientUnits="userSpaceOnUse" x1="-5198.7222" y1="99.4778" x2="-5067.5054" y2="99.4778" gradientTransform="matrix(-1 0 0 1 -4801.3818 0)">
									<stop  offset="0" style="stop-color:#7BDAFF"/>
									<stop  offset="1" style="stop-color:#59BDEF"/>
								</linearGradient>
								<polygon style="fill:url(#SVGID_00000014592389093174546760000015838199747592667792_);" points="280.2,23.9 397.3,91.5 
									383.2,175.1 266.1,107.5 								"/>
							</g>
							<g>
								
									<linearGradient id="SVGID_00000087410011648867523200000000301274968199831207_" gradientUnits="userSpaceOnUse" x1="-5185.0444" y1="173.4809" x2="-4991.5859" y2="173.4809" gradientTransform="matrix(-1 0 0 1 -4801.3818 0)">
									<stop  offset="0" style="stop-color:#2C75E4"/>
									<stop  offset="4.482402e-02" style="stop-color:#3461D5"/>
									<stop  offset="0.1323" style="stop-color:#4140BB"/>
									<stop  offset="0.2225" style="stop-color:#4B27A7"/>
									<stop  offset="0.3154" style="stop-color:#521499"/>
									<stop  offset="0.4127" style="stop-color:#570A91"/>
									<stop  offset="0.5215" style="stop-color:#58068E"/>
									<stop  offset="0.6592" style="stop-color:#5B078F"/>
									<stop  offset="0.7607" style="stop-color:#640A92"/>
									<stop  offset="0.8506" style="stop-color:#740F98"/>
									<stop  offset="0.9332" style="stop-color:#8B17A0"/>
									<stop  offset="1" style="stop-color:#A31FA9"/>
								</linearGradient>
								<path style="fill:url(#SVGID_00000087410011648867523200000000301274968199831207_);" d="M190.2,153.5l6.5,3.4l64.9-37.5
									c1.1-0.6,3-0.5,4.2,0.2l111.9,64.6c1.1-0.6,6-2.9,6-2.9l-2.4,6.2c0,0,0,0,0,0c-0.1,0.3-0.3,0.5-0.7,0.7l-68.3,39.5
									c-1.1,0.6-3,0.5-4.2-0.2l-114.5-66.1c-0.5-0.3-0.8-0.7-1-1l0,0L190.2,153.5z"/>
								
									<radialGradient id="SVGID_00000064335083940104076890000016410261650803067532_" cx="-5190.9712" cy="182.6969" r="205.3948" gradientTransform="matrix(-1 0 0 1 -4801.3818 0)" gradientUnits="userSpaceOnUse">
									<stop  offset="0" style="stop-color:#2979E4"/>
									<stop  offset="0.2449" style="stop-color:#4958CD"/>
									<stop  offset="0.5716" style="stop-color:#6E33B2"/>
									<stop  offset="0.8349" style="stop-color:#851BA1"/>
									<stop  offset="1" style="stop-color:#8D139B"/>
								</radialGradient>
								<path style="fill:url(#SVGID_00000064335083940104076890000016410261650803067532_);" d="M191.2,154.5l117.4,67.8
									c1.3,0.7,3.2,0.8,4.3,0.2l70-40.4c1.1-0.6,1-1.8-0.3-2.5l-117.4-67.8c-1.3-0.7-3.2-0.8-4.3-0.2l-70,40.4
									C189.8,152.7,189.9,153.8,191.2,154.5z"/>
								<path class="st7" d="M191.2,153.4l117.4,67.8c1.3,0.7,3.2,0.8,4.3,0.2l70-40.4c0.3-0.2,0.5-0.3,0.6-0.5
									c0.3,0.6,0.2,1.2-0.6,1.7l-70,40.4c-1.1,0.6-3.1,0.6-4.3-0.2l-117.4-67.8c-1-0.6-1.3-1.4-0.9-2
									C190.5,152.9,190.8,153.1,191.2,153.4z"/>
							</g>
						</g>
						<g class="st17">
							<defs>
								<polygon id="SVGID_00000103968890457993773340000015602984000830274439_" class="st17" points="281.6,24.7 397.3,91.5 
									383.2,175.1 267.5,108.3 								"/>
							</defs>
							<clipPath id="SVGID_00000172398252419036188540000007463736508132163495_">
								<use xlink:href="#SVGID_00000103968890457993773340000015602984000830274439_"  style="overflow:visible;"/>
							</clipPath>
							<g style="clip-path:url(#SVGID_00000172398252419036188540000007463736508132163495_);">
								
									<linearGradient id="SVGID_00000001637719845998037390000001395175173889216920_" gradientUnits="userSpaceOnUse" x1="-5208.7134" y1="125.6154" x2="-4993.2261" y2="125.6154" gradientTransform="matrix(-1 0 0 1 -4801.3818 0)">
									<stop  offset="0" style="stop-color:#C0BFF6"/>
									<stop  offset="0.2938" style="stop-color:#C5C4F7"/>
									<stop  offset="0.6399" style="stop-color:#D3D2F9"/>
									<stop  offset="1" style="stop-color:#E9E9FD"/>
								</linearGradient>
								<path style="fill:url(#SVGID_00000001637719845998037390000001395175173889216920_);" d="M265.4,111.7l130.7,75.4
									c1.4,0.8,3.6,0.9,4.8,0.2l78-45c1.2-0.7,1.1-2-0.3-2.8L347.9,64.1c-1.4-0.8-3.6-0.9-4.8-0.2l-78,45
									C263.9,109.6,264,110.9,265.4,111.7z"/>
								<g>
									<g>
										
											<radialGradient id="SVGID_00000168838714370540229270000015722355583071576723_" cx="339.4817" cy="138.1856" r="40.1474" gradientUnits="userSpaceOnUse">
											<stop  offset="0" style="stop-color:#22215B"/>
											<stop  offset="0.3261" style="stop-color:#1E1E55"/>
											<stop  offset="0.7509" style="stop-color:#141645"/>
											<stop  offset="1" style="stop-color:#0C0F38"/>
										</radialGradient>
										<polygon style="fill:url(#SVGID_00000168838714370540229270000015722355583071576723_);" points="294.1,109.8 
											388.7,164.4 384.9,166.6 290.3,112 										"/>
										
											<radialGradient id="SVGID_00000166650375476541441320000001967772415440651410_" cx="347.1066" cy="131.079" r="38.2352" gradientUnits="userSpaceOnUse">
											<stop  offset="0" style="stop-color:#22215B"/>
											<stop  offset="0.3261" style="stop-color:#1E1E55"/>
											<stop  offset="0.7509" style="stop-color:#141645"/>
											<stop  offset="1" style="stop-color:#0C0F38"/>
										</radialGradient>
										<polygon style="fill:url(#SVGID_00000166650375476541441320000001967772415440651410_);" points="304,104 393.9,156 
											390.2,158.1 300.3,106.2 										"/>
										<g>
											<polygon class="st9" points="400.6,159.8 409,164.7 405.3,166.8 396.9,162 											"/>
										</g>
										<g>
											<polygon class="st9" points="393.2,167.1 399.1,170.4 395.3,172.6 389.5,169.2 											"/>
										</g>
										
											<radialGradient id="SVGID_00000039848922833954923300000005887068382223805827_" cx="360.9071" cy="131.8356" r="44.4042" gradientUnits="userSpaceOnUse">
											<stop  offset="0" style="stop-color:#22215B"/>
											<stop  offset="0.3261" style="stop-color:#1E1E55"/>
											<stop  offset="0.7509" style="stop-color:#141645"/>
											<stop  offset="1" style="stop-color:#0C0F38"/>
										</radialGradient>
										<polygon style="fill:url(#SVGID_00000039848922833954923300000005887068382223805827_);" points="310.3,100.4 
											415.3,161.1 411.5,163.2 306.5,102.6 										"/>
										
											<radialGradient id="SVGID_00000140016041997721896660000009778406692331447688_" cx="367.1522" cy="128.23" r="44.4042" gradientUnits="userSpaceOnUse">
											<stop  offset="0" style="stop-color:#22215B"/>
											<stop  offset="0.3261" style="stop-color:#1E1E55"/>
											<stop  offset="0.7509" style="stop-color:#141645"/>
											<stop  offset="1" style="stop-color:#0C0F38"/>
										</radialGradient>
										<polygon style="fill:url(#SVGID_00000140016041997721896660000009778406692331447688_);" points="316.5,96.8 421.5,157.5 
											417.8,159.6 312.8,99 										"/>
										
											<radialGradient id="SVGID_00000042700313887745304200000016208736320267782528_" cx="373.3973" cy="124.6244" r="44.4042" gradientUnits="userSpaceOnUse">
											<stop  offset="0" style="stop-color:#22215B"/>
											<stop  offset="0.3261" style="stop-color:#1E1E55"/>
											<stop  offset="0.7509" style="stop-color:#141645"/>
											<stop  offset="1" style="stop-color:#0C0F38"/>
										</radialGradient>
										<polygon style="fill:url(#SVGID_00000042700313887745304200000016208736320267782528_);" points="322.8,93.2 427.8,153.9 
											424,156 319,95.4 										"/>
									</g>
								</g>
							</g>
						</g>
					</g>
				</g>
				<g>
					<g>
						<polygon class="st9" points="262.4,127 347.2,175.9 350.9,173.8 266.2,124.9 						"/>
					</g>
					<g>
						<polygon class="st9" points="253.2,132.4 332.7,178.2 336.4,176.1 257,130.2 						"/>
					</g>
					<g>
						<polygon class="st9" points="247.2,135.8 340.7,189.9 344.5,187.7 251,133.7 						"/>
					</g>
					<g>
						<polygon class="st9" points="241.2,139.3 334.7,193.3 338.5,191.1 244.9,137.1 						"/>
					</g>
					<g>
						<polygon class="st9" points="235.2,142.8 328.7,196.8 332.5,194.6 238.9,140.6 						"/>
					</g>
					<g>
						<polygon class="st9" points="352.3,178.9 356,181.1 359.8,178.9 356,176.7 						"/>
					</g>
					<g>
						<polygon class="st9" points="339,181.9 346.8,186.4 350.6,184.2 342.8,179.7 						"/>
					</g>
				</g>
			</g>
			<g class="st25">
				<polygon class="st26" points="289.9,48.9 297.6,53.3 297.9,52 290.1,47.5 				"/>
				<polygon class="st26" points="298.9,54 303.1,56.5 303.3,55.1 299.1,52.7 				"/>
				<polygon class="st26" points="309.7,60.3 312.7,62 312.9,60.7 309.9,58.9 				"/>
				<polygon class="st26" points="307.4,59 308.5,59.6 308.7,58.2 307.7,57.6 				"/>
				<polygon class="st26" points="304.4,57.2 306.3,58.3 306.5,57 304.6,55.9 				"/>
				<polygon class="st26" points="296,59.1 299.1,60.9 299.3,59.6 296.3,57.8 				"/>
				<polygon class="st26" points="288.9,55 294.8,58.5 295.1,57.1 289.1,53.7 				"/>
				<g>
					<polygon class="st26" points="297.4,76.8 303.4,80.2 303.6,78.9 297.7,75.4 					"/>
					<polygon class="st26" points="294.4,75 296.3,76.1 296.5,74.8 294.6,73.7 					"/>
				</g>
				<polygon class="st26" points="298.4,70.6 304.4,74.1 304.6,72.7 298.7,69.3 				"/>
				<polygon class="st26" points="295.4,68.9 297.3,69.9 297.5,68.6 295.6,67.5 				"/>
				<polygon class="st26" points="293,103.3 281.8,96.8 281.5,98.2 292.8,104.7 				"/>
				<polygon class="st26" points="297,105.6 294.2,104 294,105.4 296.8,107 				"/>
				<polygon class="st26" points="316.8,106.9 305.5,100.4 305.3,101.8 316.6,108.3 				"/>
				<polygon class="st26" points="320.8,109.2 318,107.6 317.8,108.9 320.5,110.6 				"/>
				<polygon class="st26" points="285.3,95.5 282.3,93.7 282.1,95.1 285.1,96.9 				"/>
				<polygon class="st26" points="303.9,99.5 300.9,97.7 300.6,99.1 303.7,100.8 				"/>
				<polygon class="st26" points="292.5,99.6 286.5,96.2 286.3,97.5 292.3,101 				"/>
				<polygon class="st26" points="295.6,101.4 293.7,100.3 293.5,101.7 295.3,102.8 				"/>
				<polygon class="st26" points="302.8,105.6 296.8,102.1 296.6,103.5 302.6,106.9 				"/>
				<polygon class="st26" points="305.9,107.4 304,106.3 303.7,107.6 305.6,108.7 				"/>
				<polygon class="st26" points="303.4,102.6 300.3,100.8 300.1,102.1 303.2,103.9 				"/>
				<polygon class="st26" points="310.5,106.7 304.6,103.2 304.3,104.6 310.3,108 				"/>
				<polygon class="st26" points="313.6,108.5 311.7,107.4 311.5,108.7 313.4,109.8 				"/>
				<polygon class="st26" points="289,94.3 282.8,90.7 282.6,92 288.8,95.6 				"/>
				<polygon class="st26" points="294.7,97.6 290.2,95 290,96.3 294.5,98.9 				"/>
				<polygon class="st26" points="299,100 295.9,98.3 295.7,99.6 298.8,101.4 				"/>
				<polygon class="st26" points="328.6,113.7 322.3,110.1 322.1,111.5 328.4,115.1 				"/>
				<polygon class="st26" points="334.3,117 329.8,114.4 329.5,115.7 334.1,118.4 				"/>
				<polygon class="st26" points="338.5,119.5 335.5,117.7 335.2,119 338.3,120.8 				"/>
				<polygon class="st26" points="326.1,73.1 332.4,76.7 332.6,75.4 326.4,71.8 				"/>
				<polygon class="st26" points="320.4,69.8 325,72.5 325.2,71.1 320.7,68.5 				"/>
				<polygon class="st26" points="316.2,67.4 319.3,69.2 319.5,67.8 316.4,66.1 				"/>
				<polygon class="st26" points="324.1,68.6 330.3,72.2 330.5,70.8 324.3,67.2 				"/>
				<polygon class="st26" points="318.4,65.3 322.9,67.9 323.1,66.5 318.6,63.9 				"/>
				<polygon class="st26" points="314.1,62.8 317.2,64.6 317.4,63.2 314.4,61.5 				"/>
				<polygon class="st26" points="298.8,74.2 301,75.5 301.2,74.1 299.1,72.9 				"/>
				<polygon class="st26" points="294.9,71.9 297.7,73.6 297.9,72.2 295.1,70.6 				"/>
				<polygon class="st26" points="289.6,91.2 283.4,87.6 283.1,89 289.4,92.6 				"/>
				<polygon class="st26" points="295.3,94.5 290.8,91.9 290.6,93.3 295.1,95.9 				"/>
				<polygon class="st26" points="299.5,97 296.5,95.2 296.3,96.5 299.3,98.3 				"/>
				<polygon class="st26" points="286,85.8 283.9,84.5 283.6,85.9 285.8,87.1 				"/>
				<polygon class="st26" points="290,88.1 287.2,86.5 286.9,87.8 289.7,89.4 				"/>
				<polygon class="st26" points="295.6,91.3 291.1,88.7 290.9,90.1 295.4,92.7 				"/>
				<polygon class="st26" points="301.7,65.8 303.8,67 304.1,65.6 301.9,64.4 				"/>
				<polygon class="st26" points="297.7,63.5 300.5,65.1 300.8,63.7 298,62.1 				"/>
				<polygon class="st26" points="292.1,60.2 296.6,62.8 296.8,61.5 292.3,58.9 				"/>
				<polygon class="st26" points="304.9,70.8 309.4,73.4 309.6,72 305.2,69.4 				"/>
				<polygon class="st26" points="297.6,66.8 303.6,70.3 303.9,68.9 297.8,65.4 				"/>
				<polygon class="st26" points="294.5,65 296.4,66.1 296.6,64.7 294.7,63.6 				"/>
				<polygon class="st26" points="291.6,63.3 293.4,64.4 293.7,63 291.8,61.9 				"/>
				<g>
					<polygon class="st26" points="292,80.6 297.9,84.1 298.2,82.7 292.2,79.3 					"/>
					<polygon class="st26" points="288.9,78.8 290.8,79.9 291,78.6 289.1,77.5 					"/>
					<polygon class="st26" points="292.4,84.2 294.5,85.5 294.7,84.1 292.6,82.9 					"/>
					<polygon class="st26" points="299.8,81.8 301.9,83 302.2,81.6 300,80.4 					"/>
					<polygon class="st26" points="302.8,83.5 307.9,86.4 308.1,85.1 303.1,82.2 					"/>
					<polygon class="st26" points="308.8,86.9 311.8,88.7 312,87.3 309,85.6 					"/>
					<polygon class="st26" points="288.4,81.9 291.2,83.6 291.4,82.2 288.6,80.6 					"/>
					<g>
						<polygon class="st26" points="288.1,85.1 290.3,86.3 290.5,85 288.4,83.8 						"/>
						<polygon class="st26" points="284.2,82.8 287,84.4 287.2,83.1 284.4,81.5 						"/>
					</g>
					<polygon class="st26" points="296.8,80 298.7,81.1 298.9,79.8 297,78.7 					"/>
					<polygon class="st26" points="293.8,78.3 295.7,79.4 295.9,78.1 294,77 					"/>
				</g>
				<polygon class="st26" points="308.4,62.9 314.8,66.6 315,65.3 308.6,61.5 				"/>
				<polygon class="st26" points="301.1,58.7 307.2,62.2 307.4,60.8 301.3,57.3 				"/>
				<polygon class="st26" points="298,56.9 299.9,58 300.2,56.7 298.3,55.6 				"/>
				<polygon class="st26" points="295.1,55.2 297,56.3 297.2,55 295.3,53.9 				"/>
				<polygon class="st26" points="293.5,54.3 289.4,51.9 289.6,50.6 293.7,52.9 				"/>
			</g>
		</g>
	</g>
</g>
</svg>
